<svg viewBox="0 0 375 812" xmlns="http://www.w3.org/2000/svg">
  <!-- 背景 -->
  <rect width="375" height="812" fill="#f8f9fa"/>
  
  <!-- ステータスバー -->
  <rect x="0" y="0" width="375" height="44" fill="#ffffff"/>
  <text x="20" y="28" font-family="SF Pro Display, sans-serif" font-size="16" font-weight="600" fill="#000000">9:41</text>
  <circle cx="350" cy="22" r="8" fill="#34c759" stroke="#ffffff" stroke-width="2"/>
  
  <!-- ヘッダー -->
  <rect x="0" y="44" width="375" height="60" fill="#ffffff" stroke="#e5e5e7" stroke-width="1"/>
  <text x="20" y="79" font-family="SF Pro Display, sans-serif" font-size="20" font-weight="600" fill="#000000">読書サークル</text>
  <circle cx="335" cy="74" r="18" fill="#f2f2f7" stroke="none"/>
  <circle cx="330" cy="71" r="2" fill="#8e8e93"/>
  <circle cx="330" cy="77" r="2" fill="#8e8e93"/>
  <circle cx="340" cy="71" r="2" fill="#8e8e93"/>
  <circle cx="340" cy="77" r="2" fill="#8e8e93"/>
  
  <!-- メンバー情報 -->
  <rect x="20" y="114" width="335" height="40" fill="#ffffff" rx="8"/>
  <text x="30" y="135" font-family="SF Pro Text, sans-serif" font-size="14" fill="#8e8e93">メンバー 4名</text>
  <text x="30" y="150" font-family="SF Pro Text, sans-serif" font-size="12" fill="#8e8e93">佐藤さん、田中さん、あなた、山田さん</text>
  
  <!-- フィルターボタン -->
  <rect x="20" y="164" width="335" height="44" fill="#ffffff" rx="8"/>
  <rect x="30" y="174" width="50" height="24" fill="#007aff" rx="12"/>
  <text x="55" y="189" font-family="SF Pro Text, sans-serif" font-size="12" font-weight="500" fill="#ffffff" text-anchor="middle">すべて</text>
  <rect x="90" y="174" width="70" height="24" fill="#f2f2f7" rx="12"/>
  <text x="125" y="189" font-family="SF Pro Text, sans-serif" font-size="12" font-weight="500" fill="#8e8e93" text-anchor="middle">利用可能</text>
  <rect x="170" y="174" width="50" height="24" fill="#f2f2f7" rx="12"/>
  <text x="195" y="189" font-family="SF Pro Text, sans-serif" font-size="12" font-weight="500" fill="#8e8e93" text-anchor="middle">貸出中</text>
  
  <!-- 書籍アイテム1 -->
  <rect x="20" y="218" width="335" height="80" fill="#ffffff" rx="8"/>
  <rect x="30" y="228" width="50" height="60" fill="#e3f2fd" rx="4"/>
  <text x="55" y="260" font-family="SF Pro Text, sans-serif" font-size="10" fill="#1976d2" text-anchor="middle">実本</text>
  
  <text x="90" y="242" font-family="SF Pro Text, sans-serif" font-size="16" font-weight="600" fill="#000000">プログラミング思考</text>
  <text x="90" y="258" font-family="SF Pro Text, sans-serif" font-size="14" fill="#8e8e93">山田太郎</text>
  
  <rect x="90" y="265" width="40" height="18" fill="#34c759" rx="9"/>
  <text x="110" y="277" font-family="SF Pro Text, sans-serif" font-size="10" font-weight="500" fill="#ffffff" text-anchor="middle">利用可能</text>
  
  <text x="90" y="290" font-family="SF Pro Text, sans-serif" font-size="12" fill="#8e8e93">所有者: 佐藤さん</text>
  
  <rect x="280" y="245" width="60" height="28" fill="#007aff" rx="14"/>
  <text x="310" y="262" font-family="SF Pro Text, sans-serif" font-size="12" font-weight="500" fill="#ffffff" text-anchor="middle">借りたい</text>
  
  <!-- 書籍アイテム2 -->
  <rect x="20" y="308" width="335" height="80" fill="#ffffff" rx="8"/>
  <rect x="30" y="318" width="50" height="60" fill="#fff3e0" rx="4"/>
  <text x="55" y="350" font-family="SF Pro Text, sans-serif" font-size="10" fill="#f57c00" text-anchor="middle">実本</text>
  
  <text x="90" y="332" font-family="SF Pro Text, sans-serif" font-size="16" font-weight="600" fill="#000000">AI時代のデザイン思考</text>
  <text x="90" y="348" font-family="SF Pro Text, sans-serif" font-size="14" fill="#8e8e93">佐藤花子</text>
  
  <rect x="90" y="355" width="35" height="18" fill="#ff9500" rx="9"/>
  <text x="107" y="367" font-family="SF Pro Text, sans-serif" font-size="10" font-weight="500" fill="#ffffff" text-anchor="middle">貸出中</text>
  
  <text x="90" y="380" font-family="SF Pro Text, sans-serif" font-size="12" fill="#8e8e93">所有者: 田中さん → 山田さんが借用中</text>
  
  <!-- 書籍アイテム3 -->
  <rect x="20" y="398" width="335" height="80" fill="#ffffff" rx="8"/>
  <rect x="30" y="408" width="50" height="60" fill="#f3e5f5" rx="4"/>
  <text x="55" y="440" font-family="SF Pro Text, sans-serif" font-size="10" fill="#7b1fa2" text-anchor="middle">電子</text>
  
  <text x="90" y="422" font-family="SF Pro Text, sans-serif" font-size="16" font-weight="600" fill="#000000">データサイエンス入門</text>
  <text x="90" y="438" font-family="SF Pro Text, sans-serif" font-size="14" fill="#8e8e93">田中一郎</text>
  
  <rect x="90" y="445" width="40" height="18" fill="#34c759" rx="9"/>
  <text x="110" y="457" font-family="SF Pro Text, sans-serif" font-size="10" font-weight="500" fill="#ffffff" text-anchor="middle">利用可能</text>
  
  <text x="90" y="470" font-family="SF Pro Text, sans-serif" font-size="12" fill="#8e8e93">所有者: あなた (Kindle)</text>
  
  <rect x="260" y="435" width="80" height="28" fill="#f2f2f7" rx="14"/>
  <text x="300" y="452" font-family="SF Pro Text, sans-serif" font-size="12" font-weight="500" fill="#8e8e93" text-anchor="middle">シェア不可</text>
  
  <!-- 書籍アイテム4 -->
  <rect x="20" y="488" width="335" height="80" fill="#ffffff" rx="8"/>
  <rect x="30" y="498" width="50" height="60" fill="#e8f5e8" rx="4"/>
  <text x="55" y="530" font-family="SF Pro Text, sans-serif" font-size="10" fill="#2e7d32" text-anchor="middle">実本</text>
  
  <text x="90" y="512" font-family="SF Pro Text, sans-serif" font-size="16" font-weight="600" fill="#000000">UXデザインの教科書</text>
  <text x="90" y="528" font-family="SF Pro Text, sans-serif" font-size="14" fill="#8e8e93">鈴木美咲</text>
  
  <rect x="90" y="535" width="40" height="18" fill="#34c759" rx="9"/>
  <text x="110" y="547" font-family="SF Pro Text, sans-serif" font-size="10" font-weight="500" fill="#ffffff" text-anchor="middle">利用可能</text>
  
  <text x="90" y="560" font-family="SF Pro Text, sans-serif" font-size="12" fill="#8e8e93">所有者: 山田さん</text>
  
  <rect x="280" y="525" width="60" height="28" fill="#007aff" rx="14"/>
  <text x="310" y="542" font-family="SF Pro Text, sans-serif" font-size="12" font-weight="500" fill="#ffffff" text-anchor="middle">借りたい</text>
  
  <!-- 統計情報 -->
  <rect x="20" y="578" width="335" height="60" fill="#ffffff" rx="8"/>
  <text x="30" y="598" font-family="SF Pro Text, sans-serif" font-size="14" font-weight="600" fill="#000000">グループ統計</text>
  <text x="30" y="615" font-family="SF Pro Text, sans-serif" font-size="12" fill="#8e8e93">総蔵書数: 23冊</text>
  <text x="150" y="615" font-family="SF Pro Text, sans-serif" font-size="12" fill="#8e8e93">利用可能: 18冊</text>
  <text x="250" y="615" font-family="SF Pro Text, sans-serif" font-size="12" fill="#8e8e93">貸出中: 5冊</text>
  
  <!-- フローティングアクションボタン -->
  <circle cx="335" cy="690" r="28" fill="#007aff" stroke="#ffffff" stroke-width="3"/>
  <line x1="327" y1="690" x2="343" y2="690" stroke="#ffffff" stroke-width="3" stroke-linecap="round"/>
  <line x1="335" y1="682" x2="335" y2="698" stroke="#ffffff" stroke-width="3" stroke-linecap="round"/>
  
  <!-- ボトムナビゲーション -->
  <rect x="0" y="738" width="375" height="74" fill="#ffffff" stroke="#e5e5e7" stroke-width="1"/>
  
  <!-- 書庫タブ -->
  <g>
    <rect x="30" y="750" width="20" height="16" fill="none" stroke="#8e8e93" stroke-width="1.5" rx="2"/>
    <line x1="34" y1="754" x2="46" y2="754" stroke="#8e8e93" stroke-width="1"/>
    <line x1="34" y1="758" x2="42" y2="758" stroke="#8e8e93" stroke-width="1"/>
    <line x1="34" y1="762" x2="46" y2="762" stroke="#8e8e93" stroke-width="1"/>
    <text x="40" y="785" font-family="SF Pro Text, sans-serif" font-size="10" fill="#8e8e93" text-anchor="middle">書庫</text>
  </g>
  
  <!-- グループタブ（アクティブ） -->
  <g>
    <circle cx="115" r="8" cy="758" fill="#007aff"/>
    <circle cx="125" r="8" cy="758" fill="#007aff"/>
    <circle cx="120" r="6" cy="752" fill="#007aff"/>
    <text x="120" y="785" font-family="SF Pro Text, sans-serif" font-size="10" fill="#007aff" text-anchor="middle">グループ</text>
  </g>
  
  <!-- チャレンジタブ -->
  <g>
    <circle cx="205" cy="758" r="8" fill="none" stroke="#8e8e93" stroke-width="1.5"/>
    <path d="M 201 758 L 203 760 L 209 754" fill="none" stroke="#8e8e93" stroke-width="1.5" stroke-linecap="round" stroke-linejoin="round"/>
    <text x="205" y="785" font-family="SF Pro Text, sans-serif" font-size="10" fill="#8e8e93" text-anchor="middle">チャレンジ</text>
  </g>
  
  <!-- 設定タブ -->
  <g>
    <circle cx="290" cy="758" r="8" fill="none" stroke="#8e8e93" stroke-width="1.5"/>
    <circle cx="290" cy="758" r="3" fill="none" stroke="#8e8e93" stroke-width="1"/>
    <line x1="290" y1="746" x2="290" y2="750" stroke="#8e8e93" stroke-width="1"/>
    <line x1="290" y1="766" x2="290" y2="770" stroke="#8e8e93" stroke-width="1"/>
    <line x1="278" y1="758" x2="282" y2="758" stroke="#8e8e93" stroke-width="1"/>
    <line x1="298" y1="758" x2="302" y2="758" stroke="#8e8e93" stroke-width="1"/>
    <text x="290" y="785" font-family="SF Pro Text, sans-serif" font-size="10" fill="#8e8e93" text-anchor="middle">設定</text>
  </g>
</svg>