<?xml version="1.0" encoding="UTF-8" standalone="no"?>
<svg
   viewBox="0 0 390 844"
   version="1.1"
   id="svg61"
   sodipodi:docname="個人蔵書一覧画面.svg"
   inkscape:version="1.4.2 (f4327f4, 2025-05-13)"
   inkscape:export-filename="個人蔵書一覧画面.png"
   inkscape:export-xdpi="96"
   inkscape:export-ydpi="96"
   xmlns:inkscape="http://www.inkscape.org/namespaces/inkscape"
   xmlns:sodipodi="http://sodipodi.sourceforge.net/DTD/sodipodi-0.dtd"
   xmlns="http://www.w3.org/2000/svg"
   xmlns:svg="http://www.w3.org/2000/svg">
  <defs
     id="defs61" />
  <sodipodi:namedview
     id="namedview61"
     pagecolor="#ffffff"
     bordercolor="#000000"
     borderopacity="0.25"
     inkscape:showpageshadow="2"
     inkscape:pageopacity="0.0"
     inkscape:pagecheckerboard="0"
     inkscape:deskcolor="#d1d1d1"
     inkscape:zoom="1.9554351"
     inkscape:cx="108.92716"
     inkscape:cy="166.97051"
     inkscape:window-width="2560"
     inkscape:window-height="1369"
     inkscape:window-x="1912"
     inkscape:window-y="-8"
     inkscape:window-maximized="1"
     inkscape:current-layer="g38" />
  <!-- Background -->
  <rect
     width="390"
     height="844"
     fill="#f8f9fa"
     id="rect1" />
  <!-- Header -->
  <rect
     width="390"
     height="60"
     fill="#ffffff"
     stroke="#e9ecef"
     stroke-width="1"
     id="rect2" />
  <text
     x="20"
     y="35"
     font-family="Helvetica, Arial, sans-serif"
     font-size="18"
     font-weight="bold"
     fill="#212529"
     id="text2">マイ書庫</text>
  <!-- Search icon -->
  <circle
     cx="340"
     cy="30"
     r="12"
     fill="none"
     stroke="#6c757d"
     stroke-width="2"
     id="circle2" />
  <line
     x1="350"
     y1="40"
     x2="355"
     y2="45"
     stroke="#6c757d"
     stroke-width="2"
     id="line2" />
  <!-- Notification icon -->
  <circle
     cx="315"
     cy="30"
     r="8"
     fill="none"
     stroke="#6c757d"
     stroke-width="2"
     id="circle3" />
  <circle
     cx="318"
     cy="27"
     r="2"
     fill="#dc3545"
     id="circle4" />
  <!-- Tab Navigation -->
  <rect
     x="0"
     y="60"
     width="390"
     height="50"
     fill="#ffffff"
     stroke="#e9ecef"
     stroke-width="1"
     id="rect4" />
  <rect
     x="20"
     y="75"
     width="80"
     height="20"
     rx="10"
     fill="#007bff"
     id="rect5" />
  <text
     x="60"
     y="88"
     font-family="Helvetica, Arial, sans-serif"
     font-size="12"
     font-weight="bold"
     fill="#ffffff"
     text-anchor="middle"
     id="text5">すべて</text>
  <text
     x="140"
     y="88"
     font-family="Helvetica, Arial, sans-serif"
     font-size="12"
     fill="#6c757d"
     text-anchor="middle"
     id="text6">積読</text>
  <text
     x="200"
     y="88"
     font-family="Helvetica, Arial, sans-serif"
     font-size="12"
     fill="#6c757d"
     text-anchor="middle"
     id="text7">読書中</text>
  <text
     x="260"
     y="88"
     font-family="Helvetica, Arial, sans-serif"
     font-size="12"
     fill="#6c757d"
     text-anchor="middle"
     id="text8">読了</text>
  <text
     x="330"
     y="88"
     font-family="Helvetica, Arial, sans-serif"
     font-size="12"
     fill="#6c757d"
     text-anchor="middle"
     id="text9">お気に入り</text>
  <!-- Filter and Sort -->
  <rect
     x="0"
     y="110"
     width="390"
     height="40"
     fill="#f8f9fa"
     id="rect9" />
  <text
     x="20"
     y="132"
     font-family="Helvetica, Arial, sans-serif"
     font-size="12"
     fill="#6c757d"
     id="text10">全256冊 | 最近追加順</text>
  <!-- Sort icon -->
  <g
     transform="translate(340, 125)"
     id="g11">
    <rect
       width="20"
       height="10"
       fill="none"
       stroke="#6c757d"
       stroke-width="1"
       id="rect10" />
    <line
       x1="2"
       y1="3"
       x2="18"
       y2="3"
       stroke="#6c757d"
       stroke-width="1"
       id="line10" />
    <line
       x1="2"
       y1="6"
       x2="12"
       y2="6"
       stroke="#6c757d"
       stroke-width="1"
       id="line11" />
  </g>
  <!-- Book List Items -->
  <!-- Book 1 -->
  <g
     transform="translate(0, 150)"
     id="g22">
    <rect
       width="390"
       height="100"
       fill="#ffffff"
       stroke="#e9ecef"
       stroke-width="1"
       id="rect11" />
    <!-- Book Cover -->
    <rect
       x="20"
       y="15"
       width="50"
       height="70"
       fill="#e3f2fd"
       stroke="#2196f3"
       stroke-width="1"
       rx="2"
       id="rect12" />
    <text
       x="45"
       y="50"
       font-family="Helvetica, Arial, sans-serif"
       font-size="8"
       fill="#2196f3"
       text-anchor="middle"
       id="text12">表紙</text>
    <!-- Book Info -->
    <text
       x="85"
       y="30"
       font-family="Helvetica, Arial, sans-serif"
       font-size="14"
       font-weight="bold"
       fill="#212529"
       id="text13">プログラミング思考</text>
    <text
       x="85"
       y="45"
       font-family="Helvetica, Arial, sans-serif"
       font-size="12"
       fill="#6c757d"
       id="text14">山田太郎</text>
    <!-- Status Badge -->
    <rect
       x="85"
       y="55"
       width="40"
       height="18"
       rx="9"
       fill="#28a745"
       id="rect14" />
    <text
       x="105"
       y="66"
       font-family="Helvetica, Arial, sans-serif"
       font-size="10"
       font-weight="bold"
       fill="#ffffff"
       text-anchor="middle"
       id="text15">読了</text>
    <!-- Medium Type -->
    <circle
       cx="135"
       cy="64"
       r="6"
       fill="#6f42c1"
       id="circle15" />
    <text
       x="145"
       y="67"
       font-family="Helvetica, Arial, sans-serif"
       font-size="10"
       fill="#6c757d"
       id="text16">実本</text>
    <!-- Rating Stars -->
    <g
       transform="translate(85, 72)"
       id="g20">
      <polygon
         points="5,0 6,3 10,3 7,5 8,9 5,7 2,9 3,5 0,3 4,3"
         fill="#ffc107"
         id="polygon16" />
      <polygon
         points="15,0 16,3 20,3 17,5 18,9 15,7 12,9 13,5 10,3 14,3"
         fill="#ffc107"
         id="polygon17" />
      <polygon
         points="25,0 26,3 30,3 27,5 28,9 25,7 22,9 23,5 20,3 24,3"
         fill="#ffc107"
         id="polygon18" />
      <polygon
         points="35,0 36,3 40,3 37,5 38,9 35,7 32,9 33,5 30,3 34,3"
         fill="#ffc107"
         id="polygon19" />
      <polygon
         points="45,0 46,3 50,3 47,5 48,9 45,7 42,9 43,5 40,3 44,3"
         fill="#e9ecef"
         id="polygon20" />
    </g>
    <!-- Action Menu -->
    <circle
       cx="350"
       cy="50"
       r="3"
       fill="#6c757d"
       id="circle20" />
    <circle
       cx="350"
       cy="40"
       r="3"
       fill="#6c757d"
       id="circle21" />
    <circle
       cx="350"
       cy="60"
       r="3"
       fill="#6c757d"
       id="circle22" />
  </g>
  <!-- Book 2 -->
  <g
     transform="translate(0, 250)"
     id="g30">
    <rect
       width="390"
       height="100"
       fill="#ffffff"
       stroke="#e9ecef"
       stroke-width="1"
       id="rect22" />
    <!-- Book Cover -->
    <rect
       x="20"
       y="15"
       width="50"
       height="70"
       fill="#fff3e0"
       stroke="#ff9800"
       stroke-width="1"
       rx="2"
       id="rect23" />
    <text
       x="45"
       y="50"
       font-family="Helvetica, Arial, sans-serif"
       font-size="8"
       fill="#ff9800"
       text-anchor="middle"
       id="text23">表紙</text>
    <!-- Book Info -->
    <text
       x="85"
       y="30"
       font-family="Helvetica, Arial, sans-serif"
       font-size="14"
       font-weight="bold"
       fill="#212529"
       id="text24">AI時代のデザイン思考</text>
    <text
       x="85"
       y="45"
       font-family="Helvetica, Arial, sans-serif"
       font-size="12"
       fill="#6c757d"
       id="text25">佐藤花子</text>
    <!-- Status Badge -->
    <rect
       x="85"
       y="55"
       width="50"
       height="18"
       rx="9"
       fill="#17a2b8"
       id="rect25" />
    <text
       x="110"
       y="66"
       font-family="Helvetica, Arial, sans-serif"
       font-size="10"
       font-weight="bold"
       fill="#ffffff"
       text-anchor="middle"
       id="text26">読書中</text>
    <!-- Medium Type -->
    <rect
       x="145"
       y="58"
       width="12"
       height="12"
       fill="#6f42c1"
       rx="2"
       id="rect26" />
    <text
       x="165"
       y="67"
       font-family="Helvetica, Arial, sans-serif"
       font-size="10"
       fill="#6c757d"
       id="text27">電子</text>
    <!-- Progress Bar -->
    <rect
       x="85"
       y="75"
       width="80"
       height="4"
       fill="#e9ecef"
       rx="2"
       id="rect27" />
    <rect
       x="85"
       y="75"
       width="48"
       height="4"
       fill="#17a2b8"
       rx="2"
       id="rect28" />
    <text
       x="170"
       y="78"
       font-family="Helvetica, Arial, sans-serif"
       font-size="9"
       fill="#6c757d"
       id="text28">60%</text>
    <!-- Action Menu -->
    <circle
       cx="350"
       cy="50"
       r="3"
       fill="#6c757d"
       id="circle28" />
    <circle
       cx="350"
       cy="40"
       r="3"
       fill="#6c757d"
       id="circle29" />
    <circle
       cx="350"
       cy="60"
       r="3"
       fill="#6c757d"
       id="circle30" />
  </g>
  <!-- Book 3 -->
  <g
     transform="translate(0, 350)"
     id="g38">
    <rect
       width="390"
       height="100"
       fill="#ffffff"
       stroke="#e9ecef"
       stroke-width="1"
       id="rect30" />
    <!-- Book Cover -->
    <rect
       x="20"
       y="15"
       width="50"
       height="70"
       fill="#f3e5f5"
       stroke="#9c27b0"
       stroke-width="1"
       rx="2"
       id="rect31" />
    <text
       x="45"
       y="50"
       font-family="Helvetica, Arial, sans-serif"
       font-size="8"
       fill="#9c27b0"
       text-anchor="middle"
       id="text31">表紙</text>
    <!-- Book Info -->
    <text
       x="85"
       y="30"
       font-family="Helvetica, Arial, sans-serif"
       font-size="14"
       font-weight="bold"
       fill="#212529"
       id="text32">データサイエンス入門</text>
    <text
       x="85"
       y="45"
       font-family="Helvetica, Arial, sans-serif"
       font-size="12"
       fill="#6c757d"
       id="text33">田中一郎</text>
    <!-- Status Badge -->
    <rect
       x="85"
       y="55"
       width="40"
       height="18"
       rx="9"
       fill="#6c757d"
       id="rect33" />
    <text
       x="105"
       y="66"
       font-family="Helvetica, Arial, sans-serif"
       font-size="10"
       font-weight="bold"
       fill="#ffffff"
       text-anchor="middle"
       id="text34">積読</text>
    <!-- Medium Type -->
    <circle
       cx="135"
       cy="64"
       r="6"
       fill="#6f42c1"
       id="circle34" />
    <text
       x="145"
       y="67"
       font-family="Helvetica, Arial, sans-serif"
       font-size="10"
       fill="#6c757d"
       id="text35">実本</text>
    <!-- Location Info -->
    <!-- Action Menu -->
    <circle
       cx="350"
       cy="50"
       r="3"
       fill="#6c757d"
       id="circle36" />
    <circle
       cx="350"
       cy="40"
       r="3"
       fill="#6c757d"
       id="circle37" />
    <circle
       cx="350"
       cy="60"
       r="3"
       fill="#6c757d"
       id="circle38" />
  </g>
  <!-- Book 4 -->
  <g
     transform="translate(0, 450)"
     id="g49">
    <rect
       width="390"
       height="100"
       fill="#ffffff"
       stroke="#e9ecef"
       stroke-width="1"
       id="rect38" />
    <!-- Book Cover -->
    <rect
       x="20"
       y="15"
       width="50"
       height="70"
       fill="#e8f5e8"
       stroke="#4caf50"
       stroke-width="1"
       rx="2"
       id="rect39" />
    <text
       x="45"
       y="50"
       font-family="Helvetica, Arial, sans-serif"
       font-size="8"
       fill="#4caf50"
       text-anchor="middle"
       id="text39">表紙</text>
    <!-- Book Info -->
    <text
       x="85"
       y="30"
       font-family="Helvetica, Arial, sans-serif"
       font-size="14"
       font-weight="bold"
       fill="#212529"
       id="text40">UXデザインの教科書</text>
    <text
       x="85"
       y="45"
       font-family="Helvetica, Arial, sans-serif"
       font-size="12"
       fill="#6c757d"
       id="text41">鈴木美咲</text>
    <!-- Status Badge -->
    <rect
       x="85"
       y="55"
       width="60"
       height="18"
       rx="9"
       fill="#dc3545"
       id="rect41" />
    <text
       x="115"
       y="66"
       font-family="Helvetica, Arial, sans-serif"
       font-size="10"
       font-weight="bold"
       fill="#ffffff"
       text-anchor="middle"
       id="text42">お気に入り</text>
    <!-- Heart Icon -->
    <g
       transform="translate(150, 57)"
       id="g42">
      <path
         d="M6,2 C8,0 12,0 14,2 C16,0 20,0 22,2 C24,4 24,8 14,18 C4,8 4,4 6,2 Z"
         fill="#dc3545"
         transform="scale(0.4)"
         id="path42" />
    </g>
    <!-- Medium Type -->
    <rect
       x="175"
       y="58"
       width="12"
       height="12"
       fill="#6f42c1"
       rx="2"
       id="rect42" />
    <text
       x="195"
       y="67"
       font-family="Helvetica, Arial, sans-serif"
       font-size="10"
       fill="#6c757d"
       id="text43">電子</text>
    <!-- Rating Stars -->
    <g
       transform="translate(85, 72)"
       id="g47">
      <polygon
         points="5,0 6,3 10,3 7,5 8,9 5,7 2,9 3,5 0,3 4,3"
         fill="#ffc107"
         id="polygon43" />
      <polygon
         points="15,0 16,3 20,3 17,5 18,9 15,7 12,9 13,5 10,3 14,3"
         fill="#ffc107"
         id="polygon44" />
      <polygon
         points="25,0 26,3 30,3 27,5 28,9 25,7 22,9 23,5 20,3 24,3"
         fill="#ffc107"
         id="polygon45" />
      <polygon
         points="35,0 36,3 40,3 37,5 38,9 35,7 32,9 33,5 30,3 34,3"
         fill="#ffc107"
         id="polygon46" />
      <polygon
         points="45,0 46,3 50,3 47,5 48,9 45,7 42,9 43,5 40,3 44,3"
         fill="#ffc107"
         id="polygon47" />
    </g>
    <!-- Action Menu -->
    <circle
       cx="350"
       cy="50"
       r="3"
       fill="#6c757d"
       id="circle47" />
    <circle
       cx="350"
       cy="40"
       r="3"
       fill="#6c757d"
       id="circle48" />
    <circle
       cx="350"
       cy="60"
       r="3"
       fill="#6c757d"
       id="circle49" />
  </g>
  <!-- Floating Action Button -->
  <circle
     cx="345"
     cy="750"
     r="25"
     fill="#007bff"
     stroke="#ffffff"
     stroke-width="3"
     id="circle50" />
  <line
     x1="335"
     y1="750"
     x2="355"
     y2="750"
     stroke="#ffffff"
     stroke-width="3"
     id="line50" />
  <line
     x1="345"
     y1="740"
     x2="345"
     y2="760"
     stroke="#ffffff"
     stroke-width="3"
     id="line51" />
  <!-- Bottom Navigation -->
  <rect
     x="0"
     y="784"
     width="390"
     height="60"
     fill="#ffffff"
     stroke="#e9ecef"
     stroke-width="1"
     id="rect51" />
  <!-- Nav Items -->
  <g
     transform="translate(39, 795)"
     id="g53">
    <rect
       x="0"
       y="0"
       width="20"
       height="15"
       fill="none"
       stroke="#007bff"
       stroke-width="2"
       rx="2"
       id="rect52" />
    <line
       x1="3"
       y1="7"
       x2="17"
       y2="7"
       stroke="#007bff"
       stroke-width="1"
       id="line52" />
    <line
       x1="3"
       y1="10"
       x2="12"
       y2="10"
       stroke="#007bff"
       stroke-width="1"
       id="line53" />
    <text
       x="10"
       y="30"
       font-family="Helvetica, Arial, sans-serif"
       font-size="10"
       fill="#007bff"
       text-anchor="middle"
       id="text53">書庫</text>
  </g>
  <g
     transform="translate(117, 795)"
     id="g56">
    <circle
       cx="10"
       cy="7"
       r="7"
       fill="none"
       stroke="#6c757d"
       stroke-width="2"
       id="circle53" />
    <circle
       cx="7"
       cy="5"
       r="1"
       fill="#6c757d"
       id="circle54" />
    <circle
       cx="13"
       cy="5"
       r="1"
       fill="#6c757d"
       id="circle55" />
    <circle
       cx="10"
       cy="10"
       r="1"
       fill="#6c757d"
       id="circle56" />
    <text
       x="10"
       y="30"
       font-family="Helvetica, Arial, sans-serif"
       font-size="10"
       fill="#6c757d"
       text-anchor="middle"
       id="text56">グループ</text>
  </g>
  <g
     transform="translate(195, 795)"
     id="g57">
    <circle
       cx="10"
       cy="7"
       r="7"
       fill="none"
       stroke="#6c757d"
       stroke-width="2"
       id="circle57" />
    <line
       x1="6"
       y1="9"
       x2="14"
       y2="9"
       stroke="#6c757d"
       stroke-width="2"
       id="line57" />
    <text
       x="10"
       y="30"
       font-family="Helvetica, Arial, sans-serif"
       font-size="10"
       fill="#6c757d"
       text-anchor="middle"
       id="text57">チャレンジ</text>
  </g>
  <g
     transform="translate(273, 795)"
     id="g59">
    <circle
       cx="10"
       cy="7"
       r="7"
       fill="none"
       stroke="#6c757d"
       stroke-width="2"
       id="circle58" />
    <circle
       cx="10"
       cy="7"
       r="3"
       fill="#6c757d"
       id="circle59" />
    <text
       x="10"
       y="30"
       font-family="Helvetica, Arial, sans-serif"
       font-size="10"
       fill="#6c757d"
       text-anchor="middle"
       id="text59">設定</text>
  </g>
  <g
     transform="translate(351, 795)"
     id="g61">
    <circle
       cx="10"
       cy="7"
       r="7"
       fill="none"
       stroke="#6c757d"
       stroke-width="2"
       id="circle60" />
    <line
       x1="7"
       y1="4"
       x2="13"
       y2="10"
       stroke="#6c757d"
       stroke-width="2"
       id="line60" />
    <line
       x1="13"
       y1="4"
       x2="7"
       y2="10"
       stroke="#6c757d"
       stroke-width="2"
       id="line61" />
    <text
       x="10"
       y="30"
       font-family="Helvetica, Arial, sans-serif"
       font-size="10"
       fill="#6c757d"
       text-anchor="middle"
       id="text61">その他</text>
  </g>
</svg>
